<svg width="39" height="27" viewBox="0 0 39 27" fill="none" xmlns="http://www.w3.org/2000/svg">
<path d="M37.05 0H1.95C0.873234 0 0 0.863638 0 1.92857V25.0714C0 26.1364 0.873234 27 1.95 27H37.05C38.1268 27 39 26.1364 39 25.0714V1.92857C39 0.863638 38.1268 0 37.05 0ZM10.725 17.8321V18.8036C10.725 19.07 10.5068 19.2857 10.2375 19.2857H9.2625C8.99316 19.2857 8.775 19.07 8.775 18.8036V17.8218C8.08702 17.7869 7.41792 17.5494 6.86339 17.1378C6.62573 16.9612 6.61355 16.6092 6.82866 16.4061L7.54467 15.7305C7.71347 15.5714 7.96453 15.5642 8.16197 15.6865C8.3978 15.8324 8.66531 15.9107 8.94319 15.9107H10.6561C11.0522 15.9107 11.3752 15.5539 11.3752 15.1158C11.3752 14.7572 11.1552 14.4414 10.8408 14.3486L8.09859 13.535C6.96577 13.1987 6.17419 12.1235 6.17419 10.9199C6.17419 9.44217 7.33505 8.24163 8.77439 8.20366V7.23214C8.77439 6.96576 8.99255 6.75 9.26189 6.75H10.2369C10.5062 6.75 10.7244 6.96576 10.7244 7.23214V8.21391C11.4124 8.24886 12.0815 8.48571 12.636 8.89795C12.8737 9.07453 12.8858 9.4265 12.6707 9.6296L11.9547 10.3052C11.7859 10.4643 11.5349 10.4715 11.3374 10.3492C11.1016 10.2027 10.8341 10.125 10.5562 10.125H8.84325C8.44716 10.125 8.12419 10.4818 8.12419 10.9199C8.12419 11.2785 8.34417 11.5943 8.65861 11.6871L11.4008 12.5008C12.5336 12.8371 13.3252 13.9122 13.3252 15.1158C13.3252 16.5942 12.1643 17.7941 10.725 17.8321ZM25.35 16.875C25.35 17.1414 25.1318 17.3571 24.8625 17.3571H18.0375C17.7682 17.3571 17.55 17.1414 17.55 16.875V15.9107C17.55 15.6443 17.7682 15.4286 18.0375 15.4286H24.8625C25.1318 15.4286 25.35 15.6443 25.35 15.9107V16.875ZM35.1 16.875C35.1 17.1414 34.8818 17.3571 34.6125 17.3571H29.7375C29.4682 17.3571 29.25 17.1414 29.25 16.875V15.9107C29.25 15.6443 29.4682 15.4286 29.7375 15.4286H34.6125C34.8818 15.4286 35.1 15.6443 35.1 15.9107V16.875ZM35.1 11.0893C35.1 11.3557 34.8818 11.5714 34.6125 11.5714H18.0375C17.7682 11.5714 17.55 11.3557 17.55 11.0893V10.125C17.55 9.85862 17.7682 9.64286 18.0375 9.64286H34.6125C34.8818 9.64286 35.1 9.85862 35.1 10.125V11.0893Z" fill="#383E74"/>
</svg>
