<svg width="113" height="113" viewBox="0 0 113 113" fill="none" xmlns="http://www.w3.org/2000/svg">
<path d="M97.9334 28.1135H15.0667C11.9463 28.1135 9.41675 30.6431 9.41675 33.7635V72.0375C9.41675 75.1579 11.9463 77.6875 15.0667 77.6875H97.9334C101.054 77.6875 103.583 75.1579 103.583 72.0375V33.7635C103.583 30.6431 101.054 28.1135 97.9334 28.1135Z" fill="white" stroke="#3E369B" stroke-width="5"/>
<path d="M58.713 75.5452C71.2206 75.5452 81.3601 65.4058 81.3601 52.8981C81.3601 40.3905 71.2206 30.251 58.713 30.251C46.2054 30.251 36.0659 40.3905 36.0659 52.8981C36.0659 65.4058 46.2054 75.5452 58.713 75.5452Z" stroke="#3E369B" stroke-width="5"/>
<path fill-rule="evenodd" clip-rule="evenodd" d="M56.0292 39.2298C56.0273 39.3515 55.9858 39.4692 55.9111 39.5652C55.8363 39.6611 55.7324 39.7302 55.6149 39.7619C54.2473 40.0983 52.9953 40.7959 51.9895 41.7817C50.238 43.5332 49.5977 45.9439 49.5977 48.5052C49.5977 49.8095 49.899 51.0242 50.5629 52.0836C51.222 53.1241 52.126 53.8257 53.0394 54.3106C54.7156 55.1911 56.7873 55.483 58.2845 55.6902L58.341 55.6996C60.1114 55.9491 61.2555 56.1139 62.0229 56.467C62.1484 56.519 62.2658 56.5888 62.3714 56.6742C62.4001 56.6974 62.4214 56.7285 62.4326 56.7637C62.4588 56.8683 62.4699 56.9761 62.4655 57.0838C62.4655 58.3315 62.0889 59.245 61.5662 59.8147C61.0766 60.3467 60.2244 60.8364 58.713 60.8364C56.9803 60.8364 56.1752 60.4032 55.7844 60.0124C55.681 59.9099 55.5894 59.7962 55.5113 59.6734C54.7203 58.421 53.7598 57.0838 52.2767 57.0838C50.7983 57.0838 49.5506 58.2986 49.866 59.744C50.1956 61.279 50.8642 62.6773 51.9942 63.8026C53.0112 64.8196 54.2542 65.4647 55.6149 65.8272C55.7336 65.8573 55.8391 65.9258 55.9149 66.022C55.9906 66.1182 56.0325 66.2368 56.0339 66.3592V67.3245C56.0188 67.686 56.0769 68.0469 56.2048 68.3855C56.3328 68.724 56.5278 69.0332 56.7783 69.2944C57.0288 69.5556 57.3295 69.7634 57.6624 69.9054C57.9953 70.0474 58.3534 70.1206 58.7153 70.1206C59.0772 70.1206 59.4354 70.0474 59.7683 69.9054C60.1012 69.7634 60.4019 69.5556 60.6524 69.2944C60.9029 69.0332 61.0979 68.724 61.2258 68.3855C61.3538 68.0469 61.4119 67.686 61.3967 67.3245V66.2886C61.3967 66.0391 61.5615 65.8272 61.7922 65.7566C63.2518 65.3093 64.5089 64.5324 65.5118 63.4495C67.1315 61.6886 67.8283 59.3815 67.8283 57.0791C67.8283 55.8079 67.4987 54.6167 66.7784 53.5997C66.128 52.7179 65.2556 52.0242 64.25 51.5892C62.7292 50.8924 60.8412 50.6334 59.4239 50.4357C59.3109 50.42 59.1979 50.4043 59.0849 50.3886C57.3711 50.1532 56.2552 49.9413 55.5396 49.5646C55.3642 49.489 55.2117 49.3689 55.097 49.2162C55.0593 49.155 54.9557 48.9714 54.9557 48.5052C54.9557 46.7726 55.3889 45.9627 55.7844 45.572C56.1752 45.1812 56.9803 44.748 58.713 44.748C60.4457 44.748 61.2508 45.1812 61.6416 45.572C61.7451 45.6748 61.8352 45.7903 61.9099 45.9157C62.7057 47.1634 63.6662 48.5052 65.1446 48.5052C66.6277 48.5052 67.8754 47.2858 67.5599 45.8403C67.2608 44.3091 66.5211 42.8986 65.4318 41.7817C64.4279 40.7949 63.1774 40.0957 61.8111 39.7572C61.6931 39.7273 61.5882 39.6595 61.5125 39.5642C61.4368 39.469 61.3945 39.3515 61.392 39.2298V38.4765C61.4072 38.1149 61.3491 37.754 61.2211 37.4155C61.0932 37.0769 60.8981 36.7678 60.6477 36.5066C60.3972 36.2454 60.0965 36.0375 59.7636 35.8955C59.4307 35.7536 59.0725 35.6804 58.7106 35.6804C58.3487 35.6804 57.9906 35.7536 57.6577 35.8955C57.3248 36.0375 57.0241 36.2454 56.7736 36.5066C56.5231 36.7678 56.3281 37.0769 56.2001 37.4155C56.0722 37.754 56.0141 38.1149 56.0292 38.4765V39.2298Z" fill="#3E369B"/>
</svg>
