<svg width="37" height="29" viewBox="0 0 37 29" fill="none" xmlns="http://www.w3.org/2000/svg">
<path d="M26.7222 10.3571C26.7222 4.63676 20.7406 0 13.3611 0C5.98167 0 0 4.63676 0 10.3571C0 12.5755 0.907656 14.6262 2.43905 16.3112C1.58085 18.2687 0.161875 19.8184 0.141319 19.8404C0.0721519 19.9138 0.0258665 20.0061 0.00819338 20.1057C-0.00947979 20.2054 0.00223524 20.308 0.0418882 20.401C0.0815411 20.4941 0.147391 20.5733 0.231285 20.629C0.31518 20.6847 0.413436 20.7143 0.513889 20.7143C2.86365 20.7143 4.81321 19.9213 6.21356 19.0973C8.28196 20.1162 10.7287 20.7143 13.3611 20.7143C20.7406 20.7143 26.7222 16.0775 26.7222 10.3571ZM12.3333 16.5714V15.5169C11.6081 15.4794 10.9028 15.2244 10.3182 14.7822C10.0677 14.5926 10.0549 14.2145 10.2816 13.9964L11.0364 13.2707C11.2143 13.0998 11.479 13.0921 11.6871 13.2235C11.9357 13.3801 12.2177 13.4643 12.5106 13.4643H14.3163C14.7338 13.4643 15.0743 13.0811 15.0743 12.6105C15.0743 12.2253 14.8424 11.8861 14.5109 11.7864L11.6203 10.9125C10.4262 10.5513 9.59174 9.39652 9.59174 8.10382C9.59174 6.51658 10.8154 5.22712 12.3327 5.18634V4.14286C12.3327 3.85674 12.5627 3.625 12.8466 3.625H13.8744C14.1583 3.625 14.3882 3.85674 14.3882 4.14286V5.19734C15.1135 5.23489 15.8188 5.48929 16.4033 5.93205C16.6539 6.12172 16.6667 6.49975 16.4399 6.7179L15.6852 7.44355C15.5072 7.61444 15.2426 7.62221 15.0345 7.4908C14.7859 7.3335 14.5039 7.25 14.211 7.25H12.4053C11.9877 7.25 11.6473 7.63321 11.6473 8.10382C11.6473 8.48897 11.8792 8.82817 12.2106 8.92786L15.1013 9.80174C16.2954 10.1629 17.1298 11.3178 17.1298 12.6105C17.1298 14.1983 15.9061 15.4872 14.3889 15.5279V16.5714C14.3889 16.8575 14.1589 17.0893 13.875 17.0893H12.8472C12.5633 17.0893 12.3333 16.8575 12.3333 16.5714ZM34.5597 24.5976C36.0923 22.9126 37 20.8612 37 18.6429C37 14.3097 33.564 10.6031 28.6923 9.05797C28.7476 9.4852 28.7778 9.91826 28.7778 10.3571C28.7778 17.2103 21.8621 22.7857 13.3611 22.7857C12.6686 22.7857 11.9916 22.7359 11.3229 22.664C13.3483 26.3868 18.0998 29 23.6389 29C26.2713 29 28.718 28.4019 30.7864 27.383C32.1868 28.207 34.1364 29 36.4861 29C36.6917 29 36.8773 28.8764 36.9576 28.6867C37.0392 28.4964 37 28.2763 36.858 28.1255C36.8381 28.1041 35.4179 26.5564 34.5597 24.5976Z" fill="#383E74"/>
</svg>
