<svg width="23" height="22" viewBox="0 0 23 22" fill="none" xmlns="http://www.w3.org/2000/svg">
<path d="M20.2935 0.00366211H3.10596C1.81201 0.00366211 0.762207 1.05347 0.762207 2.34741V19.5349C0.762207 20.8289 1.81201 21.8787 3.10596 21.8787H20.2935C21.5874 21.8787 22.6372 20.8289 22.6372 19.5349V2.34741C22.6372 1.05347 21.5874 0.00366211 20.2935 0.00366211ZM17.9058 7.75757C17.9155 7.89429 17.9155 8.03589 17.9155 8.17261C17.9155 12.406 14.6929 17.2839 8.8042 17.2839C6.98779 17.2839 5.30322 16.7566 3.88721 15.8484C4.146 15.8777 4.39502 15.8875 4.65869 15.8875C6.15772 15.8875 7.53467 15.3796 8.6333 14.5203C7.22705 14.491 6.04541 13.5681 5.64014 12.2986C6.1333 12.3718 6.57764 12.3718 7.08545 12.24C5.62061 11.9421 4.52197 10.6531 4.52197 9.09546V9.0564C4.94678 9.29565 5.44482 9.44214 5.96729 9.46167C5.52804 9.1695 5.16796 8.77313 4.91918 8.30794C4.67039 7.84274 4.54064 7.32319 4.5415 6.79565C4.5415 6.19995 4.69775 5.65308 4.97607 5.17944C6.55322 7.1228 8.92139 8.39233 11.5776 8.52905C11.1235 6.3562 12.7495 4.59351 14.7026 4.59351C15.6255 4.59351 16.4556 4.97925 17.0415 5.60425C17.7642 5.46753 18.4575 5.19897 19.0728 4.83276C18.8335 5.57495 18.3306 6.19995 17.6665 6.59546C18.311 6.5271 18.936 6.34644 19.5122 6.09741C19.0776 6.73706 18.5308 7.30347 17.9058 7.75757Z" fill="white"/>
</svg>
