<svg width="48" height="47" viewBox="0 0 48 47" fill="none" xmlns="http://www.w3.org/2000/svg">
<g filter="url(#filter0_d_164_527)">
<path d="M24.375 39C35.1446 39 43.875 30.2696 43.875 19.5C43.875 8.73044 35.1446 0 24.375 0C13.6054 0 4.875 8.73044 4.875 19.5C4.875 30.2696 13.6054 39 24.375 39ZM19.5 12.1875C19.5 9.49511 21.6826 7.3125 24.375 7.3125C27.0675 7.3125 29.25 9.49511 29.25 12.1875C29.25 14.8799 27.0675 17.0625 24.375 17.0625C21.6826 17.0625 19.5 14.8799 19.5 12.1875ZM18.2812 19.5H30.4688C32.488 19.5 34.125 21.137 34.125 23.1562C34.125 25.8767 33.0062 28.0564 31.1705 29.5298C29.3636 30.9801 26.9419 31.6875 24.375 31.6875C21.8081 31.6875 19.3865 30.9801 17.5796 29.5298C15.7437 28.0564 14.625 25.8767 14.625 23.1562C14.625 21.137 16.2619 19.5 18.2812 19.5Z" fill="white"/>
</g>
<defs>
<filter id="filter0_d_164_527" x="0.875" y="0" width="47" height="47" filterUnits="userSpaceOnUse" color-interpolation-filters="sRGB">
<feFlood flood-opacity="0" result="BackgroundImageFix"/>
<feColorMatrix in="SourceAlpha" type="matrix" values="0 0 0 0 0 0 0 0 0 0 0 0 0 0 0 0 0 0 127 0" result="hardAlpha"/>
<feOffset dy="4"/>
<feGaussianBlur stdDeviation="2"/>
<feComposite in2="hardAlpha" operator="out"/>
<feColorMatrix type="matrix" values="0 0 0 0 0 0 0 0 0 0 0 0 0 0 0 0 0 0 0.25 0"/>
<feBlend mode="normal" in2="BackgroundImageFix" result="effect1_dropShadow_164_527"/>
<feBlend mode="normal" in="SourceGraphic" in2="effect1_dropShadow_164_527" result="shape"/>
</filter>
</defs>
</svg>
