<svg width="39" height="39" viewBox="0 0 39 39" fill="none" xmlns="http://www.w3.org/2000/svg">
<path d="M19.5001 37.5C29.4001 37.5 37.5001 29.4 37.5001 19.5C37.5001 9.6 29.4001 1.5 19.5001 1.5C9.60006 1.5 1.50006 9.6 1.50006 19.5C1.50006 29.4 9.60006 37.5 19.5001 37.5ZM12.3001 19.5H26.7001H12.3001ZM19.5001 26.7V12.3V26.7Z" fill="white"/>
<path d="M12.3001 19.5H26.7001M19.5001 26.7V12.3M19.5001 37.5C29.4001 37.5 37.5001 29.4 37.5001 19.5C37.5001 9.6 29.4001 1.5 19.5001 1.5C9.60006 1.5 1.50006 9.6 1.50006 19.5C1.50006 29.4 9.60006 37.5 19.5001 37.5Z" stroke="#3F3F78" stroke-width="3" stroke-linecap="round" stroke-linejoin="round"/>
</svg>
