<svg width="31" height="35" viewBox="0 0 31 35" fill="none" xmlns="http://www.w3.org/2000/svg">
<path d="M29.4541 12.1849C28.2797 10.8902 26.5093 10.1378 24.0553 9.87537V8.54565C24.0553 6.14867 23.0387 3.83916 21.2507 2.2295C20.3685 1.42214 19.3253 0.809948 18.1895 0.433051C17.0537 0.0561542 15.8509 -0.0769462 14.66 0.0424708C10.4707 0.444885 6.94744 4.48652 6.94744 8.86059V9.87537C4.49344 10.1378 2.72305 10.8902 1.54864 12.1849C-0.15163 14.0745 -0.0990437 16.5939 0.0937705 18.3436L1.32077 28.089C1.68887 31.5007 3.07363 35 10.6109 35H20.3918C27.9291 35 29.3139 31.5007 29.682 28.1065L30.909 18.3261C31.1018 16.5939 31.1369 14.0745 29.4541 12.1849ZM14.9054 2.47445C15.7549 2.38928 16.6128 2.48295 17.4238 2.74941C18.2347 3.01586 18.9807 3.44918 19.6134 4.02136C20.2461 4.59353 20.7515 5.29184 21.0969 6.07116C21.4424 6.85048 21.6202 7.69346 21.6188 8.54565V9.77039H9.38391V8.86059C9.38391 5.74625 11.9606 2.75439 14.9054 2.47445ZM9.22615 19.5158H9.20862C8.24455 19.5158 7.45577 18.7285 7.45577 17.7662C7.45577 16.8039 8.24455 16.0166 9.20862 16.0166C10.1902 16.0166 10.979 16.8039 10.979 17.7662C10.979 18.7285 10.1902 19.5158 9.22615 19.5158ZM21.4961 19.5158H21.4786C20.5145 19.5158 19.7258 18.7285 19.7258 17.7662C19.7258 16.8039 20.5145 16.0166 21.4786 16.0166C22.4602 16.0166 23.249 16.8039 23.249 17.7662C23.249 18.7285 22.4602 19.5158 21.4961 19.5158Z" fill="white"/>
</svg>
