<svg width="69" height="59" viewBox="0 0 69 59" fill="none" xmlns="http://www.w3.org/2000/svg">
<path d="M34.5 0C15.4468 0 0 12.2636 0 27.3929C0 33.9197 2.88533 39.9053 7.68434 44.6108C5.99168 51.2365 0.363867 57.1523 0.296484 57.2221C0.151373 57.3715 0.0542673 57.5591 0.0171895 57.7618C-0.0198883 57.9646 0.00468947 58.1735 0.0878803 58.3627C0.171071 58.5519 0.309222 58.7132 0.485231 58.8264C0.661239 58.9397 0.867377 59.0001 1.07812 59C10.0077 59 16.7096 54.8186 20.0262 52.2334C24.4317 53.8546 29.3237 54.7857 34.5 54.7857C53.5532 54.7857 69 42.5221 69 27.3929C69 12.2636 53.5532 0 34.5 0ZM37.7344 39.8303V42.1429C37.7344 43.3071 36.7695 44.25 35.5781 44.25H33.4219C32.2305 44.25 31.2656 43.3071 31.2656 42.1429V39.8079C29.7266 39.6301 28.263 39.1244 26.9828 38.2986C26.1445 37.7574 26.0637 36.5721 26.7739 35.8781L29.135 33.5707C29.639 33.0782 30.3896 33.0123 31.0365 33.3034C31.4651 33.4957 31.9341 33.5958 32.4192 33.5958H36.8368C37.4648 33.5958 37.9743 33.0979 37.9743 32.4869C37.9743 31.993 37.6346 31.5545 37.1495 31.4188L30.4018 29.5356C27.4032 28.6993 25.0098 26.2813 24.619 23.2576C24.0732 19.0341 27.1836 15.4309 31.2656 14.9541V12.6429C31.2656 11.4787 32.2305 10.5357 33.4219 10.5357H35.5781C36.7695 10.5357 37.7344 11.4787 37.7344 12.6429V14.9778C39.2734 15.1556 40.737 15.6613 42.0172 16.4871C42.8555 17.0283 42.9363 18.2136 42.2261 18.9077L39.865 21.215C39.361 21.7075 38.6104 21.7734 37.9635 21.4823C37.5296 21.2885 37.0579 21.1887 36.5808 21.19H32.1632C31.5352 21.19 31.0257 21.6878 31.0257 22.2988C31.0257 22.7927 31.3654 23.2312 31.8505 23.3669L38.5982 25.2502C41.5968 26.0877 43.9902 28.5044 44.381 31.5281C44.9268 35.7503 41.8164 39.3535 37.7344 39.8303Z" fill="white"/>
</svg>
