<svg width="27" height="27" viewBox="0 0 27 27" fill="none" xmlns="http://www.w3.org/2000/svg">
<path d="M13.5001 25.5C20.1277 25.5 25.5001 20.1276 25.5001 13.5C25.5001 6.8724 20.1277 1.5 13.5001 1.5C6.87246 1.5 1.50006 6.8724 1.50006 13.5C1.50006 20.1276 6.87246 25.5 13.5001 25.5Z" fill="white" stroke="white" stroke-width="1.5" stroke-linecap="round" stroke-linejoin="round"/>
<path d="M9.50647 16.296C9.50647 17.844 10.6945 19.092 12.1705 19.092H15.1825C16.4665 19.092 17.5105 18 17.5105 16.656C17.5105 15.192 16.8745 14.676 15.9265 14.34L11.0905 12.66C10.1425 12.324 9.50647 11.808 9.50647 10.344C9.50647 9.00005 10.5505 7.90805 11.8345 7.90805H14.8465C16.3225 7.90805 17.5105 9.15605 17.5105 10.704M13.5001 6.30005V20.7" stroke="#3F3F78" stroke-width="1.5" stroke-linecap="round" stroke-linejoin="round"/>
</svg>
