<svg width="50" height="89" viewBox="0 0 50 89" fill="none" xmlns="http://www.w3.org/2000/svg">
<g filter="url(#filter0_b_128_216)">
<path d="M36.3209 40.5715L17.5669 35.0785C15.3963 34.4527 13.8855 32.4189 13.8855 30.1592C13.8855 27.3258 16.1777 25.0312 19.0082 25.0312H30.5211C32.6396 25.0312 34.7234 25.6744 36.4598 26.8564C37.5191 27.5691 38.943 27.3953 39.846 26.5088L45.8889 20.5986C47.1218 19.3992 46.9482 17.4002 45.5764 16.3398C41.322 13.0023 36.0084 11.1424 30.5558 11.125V2.78125C30.5558 1.25156 29.3055 0 27.7774 0H22.2207C20.6926 0 19.4423 1.25156 19.4423 2.78125V11.125H19.0082C7.94677 11.125 -0.944028 20.6334 0.0804979 31.9148C0.809821 39.9283 6.92225 46.4469 14.6322 48.7066L32.4312 53.9215C34.6018 54.5647 36.1125 56.5811 36.1125 58.8408C36.1125 61.6742 33.8204 63.9688 30.9899 63.9688H19.477C17.3585 63.9688 15.2747 63.3256 13.5382 62.1436C12.479 61.4309 11.0551 61.6047 10.1521 62.4912L4.10914 68.4014C2.87624 69.6008 3.04989 71.5998 4.42171 72.6602C8.67609 75.9977 13.9897 77.8576 19.4423 77.875V86.2188C19.4423 87.7484 20.6926 89 22.2207 89H27.7774C29.3055 89 30.5558 87.7484 30.5558 86.2188V77.8402C38.6478 77.6838 46.2362 72.8688 48.9104 65.2029C52.6439 54.4951 46.3752 43.5092 36.3209 40.5715Z" fill="white"/>
</g>
<defs>
<filter id="filter0_b_128_216" x="-10" y="-10" width="70" height="109" filterUnits="userSpaceOnUse" color-interpolation-filters="sRGB">
<feFlood flood-opacity="0" result="BackgroundImageFix"/>
<feGaussianBlur in="BackgroundImageFix" stdDeviation="5"/>
<feComposite in2="SourceAlpha" operator="in" result="effect1_backgroundBlur_128_216"/>
<feBlend mode="normal" in="SourceGraphic" in2="effect1_backgroundBlur_128_216" result="shape"/>
</filter>
</defs>
</svg>
