<svg width="24" height="24" viewBox="0 0 24 24" fill="none" xmlns="http://www.w3.org/2000/svg">
<path d="M7 17.5V11.5C7 11.2348 7.10536 10.9804 7.29289 10.7929C7.48043 10.6054 7.73478 10.5 8 10.5H20C20.2652 10.5 20.5196 10.6054 20.7071 10.7929C20.8946 10.9804 21 11.2348 21 11.5V17.5C21 17.7652 20.8946 18.0196 20.7071 18.2071C20.5196 18.3946 20.2652 18.5 20 18.5H8C7.73478 18.5 7.48043 18.3946 7.29289 18.2071C7.10536 18.0196 7 17.7652 7 17.5Z" stroke="white" stroke-width="2" stroke-linecap="round" stroke-linejoin="round"/>
<path d="M20 10.5V8C20 7.73478 19.8946 7.48043 19.7071 7.29289C19.5196 7.10536 19.2652 7 19 7H13.35C13.1231 6.9996 12.903 6.92201 12.726 6.78L10.774 5.22C10.5967 5.07777 10.3763 5.00018 10.149 5H4C3.73478 5 3.48043 5.10536 3.29289 5.29289C3.10536 5.48043 3 5.73478 3 6V17.5C3 17.7652 3.10536 18.0196 3.29289 18.2071C3.48043 18.3946 3.73478 18.5 4 18.5H8.5" stroke="white" stroke-width="2" stroke-linecap="round" stroke-linejoin="round"/>
</svg>
