<svg width="34" height="30" viewBox="0 0 34 30" fill="none" xmlns="http://www.w3.org/2000/svg">
<path d="M30.8125 15H3.1875C2.34212 15 1.53137 15.3386 0.933597 15.9414C0.335825 16.5442 0 17.3618 0 18.2143C0 19.0668 0.335825 19.8843 0.933597 20.4871C1.53137 21.0899 2.34212 21.4286 3.1875 21.4286H30.8125C31.6579 21.4286 32.4686 21.0899 33.0664 20.4871C33.6642 19.8843 34 19.0668 34 18.2143C34 17.3618 33.6642 16.5442 33.0664 15.9414C32.4686 15.3386 31.6579 15 30.8125 15ZM31.875 23.5714H2.125C1.84321 23.5714 1.57296 23.6843 1.3737 23.8852C1.17444 24.0862 1.0625 24.3587 1.0625 24.6429V25.7143C1.0625 26.8509 1.51027 27.941 2.3073 28.7447C3.10433 29.5485 4.18533 30 5.3125 30H28.6875C29.8147 30 30.8957 29.5485 31.6927 28.7447C32.4897 27.941 32.9375 26.8509 32.9375 25.7143V24.6429C32.9375 24.3587 32.8256 24.0862 32.6263 23.8852C32.427 23.6843 32.1568 23.5714 31.875 23.5714ZM3.89406 12.8571H30.1059C32.4016 12.8571 33.733 9.91741 32.4182 7.77589C29.75 3.42857 23.8764 0.00669643 17 0C10.1243 0.00669643 4.25 3.42857 1.5818 7.77522C0.265625 9.91674 1.5984 12.8571 3.89406 12.8571ZM25.5 5.35714C25.7101 5.35714 25.9156 5.41998 26.0903 5.53771C26.265 5.65544 26.4012 5.82278 26.4816 6.01855C26.562 6.21433 26.5831 6.42976 26.5421 6.6376C26.5011 6.84543 26.3999 7.03634 26.2513 7.18619C26.1027 7.33603 25.9134 7.43807 25.7073 7.47941C25.5012 7.52075 25.2875 7.49954 25.0934 7.41844C24.8993 7.33735 24.7333 7.20002 24.6166 7.02383C24.4998 6.84763 24.4375 6.64048 24.4375 6.42857C24.4375 6.14441 24.5494 5.87189 24.7487 5.67096C24.948 5.47003 25.2182 5.35714 25.5 5.35714ZM17 3.21429C17.2101 3.21429 17.4156 3.27712 17.5903 3.39485C17.765 3.51258 17.9012 3.67992 17.9816 3.8757C18.062 4.07147 18.0831 4.2869 18.0421 4.49474C18.0011 4.70258 17.8999 4.89349 17.7513 5.04333C17.6027 5.19317 17.4134 5.29521 17.2073 5.33656C17.0012 5.3779 16.7875 5.35668 16.5934 5.27559C16.3993 5.19449 16.2333 5.05716 16.1166 4.88097C15.9998 4.70477 15.9375 4.49762 15.9375 4.28571C15.9375 4.00155 16.0494 3.72903 16.2487 3.5281C16.448 3.32717 16.7182 3.21429 17 3.21429ZM8.5 5.35714C8.71014 5.35714 8.91557 5.41998 9.09029 5.53771C9.26502 5.65544 9.4012 5.82278 9.48162 6.01855C9.56204 6.21433 9.58308 6.42976 9.54208 6.6376C9.50109 6.84543 9.39989 7.03634 9.2513 7.18619C9.10271 7.33603 8.91339 7.43807 8.70728 7.47941C8.50118 7.52075 8.28755 7.49954 8.0934 7.41844C7.89925 7.33735 7.73331 7.20002 7.61656 7.02383C7.49981 6.84763 7.4375 6.64048 7.4375 6.42857C7.4375 6.14441 7.54944 5.87189 7.7487 5.67096C7.94796 5.47003 8.21821 5.35714 8.5 5.35714Z" fill="white"/>
</svg>
