<svg width="20" height="24" viewBox="0 0 20 24" fill="none" xmlns="http://www.w3.org/2000/svg">
<path d="M20 16.2142V1.12048C20 0.523022 19.5223 0.0423584 18.9286 0.0423584H4.28571C1.91964 0.0423584 0 1.974 0 4.35486V18.7299C0 21.1107 1.91964 23.0424 4.28571 23.0424H18.9286C19.5223 23.0424 20 22.5617 20 21.9642V21.2455C20 20.9086 19.8438 20.6031 19.6027 20.4054C19.4152 19.7136 19.4152 17.7416 19.6027 17.0498C19.8438 16.8566 20 16.5511 20 16.2142ZM5.71429 6.06189C5.71429 5.91365 5.83482 5.79236 5.98214 5.79236H15.4464C15.5938 5.79236 15.7143 5.91365 15.7143 6.06189V6.96033C15.7143 7.10857 15.5938 7.22986 15.4464 7.22986H5.98214C5.83482 7.22986 5.71429 7.10857 5.71429 6.96033V6.06189ZM5.71429 8.93689C5.71429 8.78865 5.83482 8.66736 5.98214 8.66736H15.4464C15.5938 8.66736 15.7143 8.78865 15.7143 8.93689V9.83533C15.7143 9.98357 15.5938 10.1049 15.4464 10.1049H5.98214C5.83482 10.1049 5.71429 9.98357 5.71429 9.83533V8.93689ZM17.0268 20.1674H4.28571C3.49554 20.1674 2.85714 19.525 2.85714 18.7299C2.85714 17.9392 3.5 17.2924 4.28571 17.2924H17.0268C16.942 18.0605 16.942 19.3992 17.0268 20.1674Z" fill="white"/>
</svg>
