<svg width="26" height="25" viewBox="0 0 26 25" fill="none" xmlns="http://www.w3.org/2000/svg">
<path d="M25.1094 12.5195C25.1217 19.1913 19.6807 24.647 13.0088 24.6517C10.1272 24.6537 7.48031 23.6492 5.40029 21.9705C4.85942 21.534 4.81899 20.7234 5.31049 20.2319L5.86064 19.6817C6.281 19.2614 6.95209 19.2154 7.41781 19.5848C8.95029 20.8009 10.8897 21.5267 13 21.5267C17.9661 21.5267 21.9844 17.5076 21.9844 12.5424C21.9844 7.57629 17.9653 3.55798 13 3.55798C10.6165 3.55798 8.4517 4.4842 6.84433 5.99607L9.32255 8.47429C9.81474 8.96648 9.46615 9.80798 8.77016 9.80798H1.67187C1.24037 9.80798 0.890617 9.45823 0.890617 9.02673V1.92844C0.890617 1.23245 1.73212 0.883862 2.22431 1.376L4.63505 3.78674C6.80903 1.70916 9.75546 0.432983 13 0.432983C19.6802 0.432983 25.097 5.84216 25.1094 12.5195ZM16.2758 16.3663L16.7554 15.7496C17.1528 15.2387 17.0607 14.5025 16.5498 14.1052L14.5625 12.5594V7.46423C14.5625 6.81702 14.0378 6.29236 13.3906 6.29236H12.6094C11.9622 6.29236 11.4375 6.81702 11.4375 7.46423V14.0878L14.6313 16.5719C15.1422 16.9692 15.8784 16.8772 16.2758 16.3663Z" fill="white"/>
</svg>
