<svg width="26" height="27" viewBox="0 0 26 27" fill="none" xmlns="http://www.w3.org/2000/svg">
<path d="M9.11083 11.4732L7.58333 13.0007L13 18.4174L18.4167 13.0007L16.8892 11.4732L14.0833 14.2682L14.0833 3.79236L11.9167 3.79236L11.9167 14.2682L9.11083 11.4732ZM22.75 21.1257L22.75 5.95903C22.75 5.38439 22.5217 4.83329 22.1154 4.42696C21.7091 4.02063 21.158 3.79236 20.5833 3.79236L16.25 3.79236L16.25 5.95902L20.5833 5.95903L20.5833 21.1257L5.41667 21.1257L5.41667 5.95902L9.75 5.95902L9.75 3.79236L5.41667 3.79236C4.84203 3.79236 4.29093 4.02063 3.8846 4.42696C3.47827 4.83329 3.25 5.38439 3.25 5.95902L3.25 21.1257C3.25 22.3174 4.225 23.2924 5.41667 23.2924L20.5833 23.2924C21.775 23.2924 22.75 22.3174 22.75 21.1257Z" fill="white"/>
</svg>
