<svg width="23" height="23" viewBox="0 0 23 23" fill="none" xmlns="http://www.w3.org/2000/svg">
<path d="M21.1997 0.5625H2.44482C1.58545 0.5625 0.887207 1.27051 0.887207 2.13965V20.8604C0.887207 21.7295 1.58545 22.4375 2.44482 22.4375H21.1997C22.0591 22.4375 22.7622 21.7295 22.7622 20.8604V2.13965C22.7622 1.27051 22.0591 0.5625 21.1997 0.5625ZM7.49853 19.3125H4.25635V8.87305H7.50342V19.3125H7.49853ZM5.87744 7.44727C4.8374 7.44727 3.99756 6.60254 3.99756 5.56738C3.99756 4.53223 4.8374 3.6875 5.87744 3.6875C6.9126 3.6875 7.75732 4.53223 7.75732 5.56738C7.75732 6.60742 6.91748 7.44727 5.87744 7.44727ZM19.6519 19.3125H16.4097V14.2344C16.4097 13.0234 16.3853 11.4658 14.7251 11.4658C13.0356 11.4658 12.7769 12.7842 12.7769 14.1465V19.3125H9.53467V8.87305H12.645V10.2988H12.689C13.1235 9.47852 14.1831 8.61426 15.7603 8.61426C19.0415 8.61426 19.6519 10.7773 19.6519 13.5898V19.3125Z" fill="white"/>
</svg>
