<svg width="49" height="49" viewBox="0 0 49 49" fill="none" xmlns="http://www.w3.org/2000/svg">
<path d="M30.3969 3.10481C31.1986 3.90651 31.8345 4.85826 32.2684 5.90572C32.7023 6.95319 32.9256 8.07585 32.9256 9.20962C32.9256 10.3434 32.7023 11.4661 32.2684 12.5135C31.8345 13.561 31.1986 14.5127 30.3969 15.3144L24.2921 21.4192L18.1873 15.3144C16.5682 13.6953 15.6586 11.4994 15.6586 9.20962C15.6586 6.91987 16.5682 4.72391 18.1873 3.10481C19.8064 1.48572 22.0023 0.576118 24.2921 0.576117C26.5818 0.576118 28.7778 1.48572 30.3969 3.10481ZM24.2921 15.6735L27.524 12.4416C28.1633 11.8024 28.5986 10.9879 28.7749 10.1013C28.9513 9.21469 28.8608 8.29568 28.5148 7.4605C28.1689 6.62532 27.5831 5.91147 26.8314 5.40924C26.0798 4.90701 25.1961 4.63894 24.2921 4.63894C23.3881 4.63894 22.5044 4.90701 21.7528 5.40924C21.0011 5.91147 20.4153 6.62532 20.0693 7.4605C19.7234 8.29568 19.6329 9.21469 19.8092 10.1013C19.9856 10.9879 20.4209 11.8024 21.0601 12.4416L24.2921 15.6735ZM15.3144 18.1873L21.4192 24.2921L15.3144 30.3969C14.107 31.6043 12.5687 32.4266 10.8939 32.7597C9.21919 33.0928 7.48328 32.9219 5.90572 32.2684C4.32815 31.615 2.97978 30.5084 2.03112 29.0886C1.08246 27.6688 0.576112 25.9996 0.576111 24.2921C0.576113 22.5845 1.08246 20.9153 2.03112 19.4956C2.97978 18.0758 4.32815 16.9692 5.90572 16.3158C7.48328 15.6623 9.21919 15.4914 10.8939 15.8245C12.5687 16.1576 14.107 16.9799 15.3144 18.1873ZM12.4416 21.0601C11.8024 20.4209 10.9879 19.9856 10.1013 19.8092C9.21469 19.6329 8.29568 19.7234 7.46049 20.0693C6.62531 20.4153 5.91147 21.0011 5.40923 21.7528C4.907 22.5044 4.63894 23.3881 4.63894 24.2921C4.63894 25.1961 4.907 26.0798 5.40924 26.8314C5.91147 27.5831 6.62531 28.1689 7.46049 28.5148C8.29567 28.8608 9.21469 28.9513 10.1013 28.7749C10.9879 28.5986 11.8024 28.1633 12.4416 27.5241L15.6735 24.2921L12.4416 21.0601ZM45.4794 18.1873C47.0985 19.8064 48.0081 22.0023 48.0081 24.2921C48.0081 26.5818 47.0985 28.7778 45.4794 30.3969C43.8603 32.016 41.6643 32.9256 39.3746 32.9256C37.0848 32.9256 34.8888 32.016 33.2697 30.3969L27.1649 24.2921L33.2697 18.1873C34.8888 16.5682 37.0848 15.6586 39.3746 15.6586C41.6643 15.6586 43.8603 16.5682 45.4794 18.1873ZM36.1426 27.5241C36.7818 28.1633 37.5962 28.5986 38.4829 28.7749C39.3695 28.9513 40.2885 28.8608 41.1237 28.5148C41.9589 28.1689 42.6727 27.5831 43.1749 26.8314C43.6772 26.0798 43.9452 25.1961 43.9452 24.2921C43.9452 23.3881 43.6772 22.5044 43.1749 21.7528C42.6727 21.0011 41.9589 20.4153 41.1237 20.0693C40.2885 19.7234 39.3695 19.6329 38.4829 19.8092C37.5962 19.9856 36.7818 20.4209 36.1426 21.0601L32.9106 24.2921L36.1426 27.5241ZM24.2921 27.1649L30.3969 33.2698C31.6043 34.4772 32.4266 36.0155 32.7597 37.6903C33.0928 39.365 32.9219 41.1009 32.2684 42.6785C31.615 44.256 30.5084 45.6044 29.0886 46.5531C27.6688 47.5017 25.9996 48.0081 24.2921 48.0081C22.5845 48.0081 20.9153 47.5017 19.4956 46.5531C18.0758 45.6044 16.9692 44.256 16.3158 42.6785C15.6623 41.1009 15.4913 39.365 15.8245 37.6903C16.1576 36.0155 16.9799 34.4772 18.1873 33.2698L24.2921 27.1649ZM24.2921 32.9106L21.0601 36.1426C20.4209 36.7818 19.9856 37.5962 19.8092 38.4829C19.6329 39.3695 19.7234 40.2885 20.0693 41.1237C20.4153 41.9589 21.0011 42.6727 21.7528 43.1749C22.5044 43.6772 23.3881 43.9452 24.2921 43.9452C25.1961 43.9452 26.0798 43.6772 26.8314 43.1749C27.5831 42.6727 28.1689 41.9589 28.5148 41.1237C28.8608 40.2885 28.9513 39.3695 28.7749 38.4829C28.5986 37.5962 28.1633 36.7818 27.524 36.1426L24.2921 32.9106Z" fill="#2F3462"/>
</svg>
