<svg width="30" height="29" viewBox="0 0 30 29" fill="none" xmlns="http://www.w3.org/2000/svg">
<g filter="url(#filter0_d_164_525)">
<path d="M4.78125 4.44531H25.0938C25.5252 4.44531 25.875 4.09556 25.875 3.66406V1.71094C25.875 1.27944 25.5252 0.929688 25.0938 0.929688H4.78125C4.34976 0.929688 4 1.27944 4 1.71094V3.66406C4 4.09556 4.34976 4.44531 4.78125 4.44531ZM4.78125 12.2578H25.0938C25.5252 12.2578 25.875 11.9081 25.875 11.4766V9.52344C25.875 9.09194 25.5252 8.74219 25.0938 8.74219H4.78125C4.34976 8.74219 4 9.09194 4 9.52344V11.4766C4 11.9081 4.34976 12.2578 4.78125 12.2578ZM4.78125 20.0703H25.0938C25.5252 20.0703 25.875 19.7206 25.875 19.2891V17.3359C25.875 16.9044 25.5252 16.5547 25.0938 16.5547H4.78125C4.34976 16.5547 4 16.9044 4 17.3359V19.2891C4 19.7206 4.34976 20.0703 4.78125 20.0703Z" fill="white"/>
</g>
<defs>
<filter id="filter0_d_164_525" x="0" y="0.929688" width="29.875" height="27.1406" filterUnits="userSpaceOnUse" color-interpolation-filters="sRGB">
<feFlood flood-opacity="0" result="BackgroundImageFix"/>
<feColorMatrix in="SourceAlpha" type="matrix" values="0 0 0 0 0 0 0 0 0 0 0 0 0 0 0 0 0 0 127 0" result="hardAlpha"/>
<feOffset dy="4"/>
<feGaussianBlur stdDeviation="2"/>
<feComposite in2="hardAlpha" operator="out"/>
<feColorMatrix type="matrix" values="0 0 0 0 0 0 0 0 0 0 0 0 0 0 0 0 0 0 0.25 0"/>
<feBlend mode="normal" in2="BackgroundImageFix" result="effect1_dropShadow_164_525"/>
<feBlend mode="normal" in="SourceGraphic" in2="effect1_dropShadow_164_525" result="shape"/>
</filter>
</defs>
</svg>
