<svg width="76" height="57" viewBox="0 0 76 57" fill="none" xmlns="http://www.w3.org/2000/svg">
<path d="M49.4 38H55.1C56.05 38 57 37.05 57 36.1V16.15C57 15.2 56.05 14.25 55.1 14.25H49.4C48.45 14.25 47.5 15.2 47.5 16.15V36.1C47.5 37.05 48.45 38 49.4 38ZM63.65 38H69.35C70.3 38 71.25 37.05 71.25 36.1V1.9C71.25 0.95 70.3 0 69.35 0H63.65C62.7 0 61.75 0.95 61.75 1.9V36.1C61.75 37.05 62.7 38 63.65 38ZM20.9 38H26.6C27.55 38 28.5 37.05 28.5 36.1V25.65C28.5 24.7 27.55 23.75 26.6 23.75H20.9C19.95 23.75 19 24.7 19 25.65V36.1C19 37.05 19.95 38 20.9 38ZM35.15 38H40.85C41.8 38 42.75 37.05 42.75 36.1V6.65C42.75 5.7 41.8 4.75 40.85 4.75H35.15C34.2 4.75 33.25 5.7 33.25 6.65V36.1C33.25 37.05 34.2 38 35.15 38ZM73.625 47.5H9.5V2.375C9.5 1.06281 8.43719 0 7.125 0H2.375C1.06281 0 0 1.06281 0 2.375V52.25C0 54.8729 2.12711 57 4.75 57H73.625C74.9372 57 76 55.9372 76 54.625V49.875C76 48.5628 74.9372 47.5 73.625 47.5Z" fill="white"/>
</svg>
