<svg width="26" height="25" viewBox="0 0 26 25" fill="none" xmlns="http://www.w3.org/2000/svg">
<path d="M24.7551 13.9705H13.8503L21.1127 21.2329C21.3902 21.5105 21.847 21.533 22.1324 21.2642C23.9109 19.5886 25.1343 17.3299 25.4932 14.7908C25.5548 14.3561 25.194 13.9705 24.7551 13.9705ZM24.0276 10.9926C23.649 5.5027 19.262 1.11575 13.7721 0.737074C13.353 0.708122 13.0001 1.06152 13.0001 1.48156V11.7646H23.2836C23.7037 11.7646 24.0566 11.4117 24.0276 10.9926ZM10.7942 13.9705V3.06566C10.7942 2.62678 10.4086 2.26603 9.97433 2.32761C4.49777 3.1015 0.311651 7.88597 0.506504 13.6199C0.706871 19.5087 5.77718 24.3377 11.6687 24.2637C13.9849 24.2348 16.1251 23.4885 17.8847 22.2403C18.2478 21.9829 18.2717 21.4485 17.9569 21.1337L10.7942 13.9705Z" fill="white"/>
</svg>
