<svg width="23" height="22" viewBox="0 0 23 22" fill="none" xmlns="http://www.w3.org/2000/svg">
<path d="M21.1997 0.00366211H2.44482C1.58545 0.00366211 0.887207 0.71167 0.887207 1.58081V20.3015C0.887207 21.1707 1.58545 21.8787 2.44482 21.8787H21.1997C22.0591 21.8787 22.7622 21.1707 22.7622 20.3015V1.58081C22.7622 0.71167 22.0591 0.00366211 21.1997 0.00366211ZM7.49853 18.7537H4.25635V8.31421H7.50342V18.7537H7.49853ZM5.87744 6.88843C4.8374 6.88843 3.99756 6.0437 3.99756 5.00854C3.99756 3.97339 4.8374 3.12866 5.87744 3.12866C6.9126 3.12866 7.75732 3.97339 7.75732 5.00854C7.75732 6.04858 6.91748 6.88843 5.87744 6.88843ZM19.6519 18.7537H16.4097V13.6755C16.4097 12.4646 16.3853 10.907 14.7251 10.907C13.0356 10.907 12.7769 12.2253 12.7769 13.5876V18.7537H9.53467V8.31421H12.645V9.73999H12.689C13.1235 8.91968 14.1831 8.05542 15.7603 8.05542C19.0415 8.05542 19.6519 10.2185 19.6519 13.031V18.7537Z" fill="white"/>
</svg>
