<svg width="58" height="17" viewBox="0 0 58 17" fill="none" xmlns="http://www.w3.org/2000/svg">
<path fill-rule="evenodd" clip-rule="evenodd" d="M14.4328 5.60664C13.1972 8.69038 12.0908 11.0438 11.9744 10.8362C11.8577 10.6288 11.3528 8.4809 10.8525 6.0632C10.3519 3.6455 9.73559 1.36028 9.48314 0.98527C9.04235 0.330141 8.84512 0.303766 4.51213 0.318924L0 0.334689L1.97223 1.03408C3.05696 1.41879 4.18967 1.83078 4.48945 1.94962C4.8083 2.07574 5.25928 2.94399 5.57517 4.0387C5.87232 5.06883 6.82687 8.36722 7.69663 11.3685L9.27803 16.8254L11.7137 16.9127L14.1491 17L17.6626 9.03053C19.5951 4.64744 21.2715 0.822473 21.3882 0.53053C21.5785 0.0551751 21.3451 0 19.1402 0L16.6795 0L14.4328 5.60664ZM23.3446 0.98527C23.2417 1.52732 22.6451 4.90361 22.0193 8.48848C21.3934 12.0733 20.7988 15.4496 20.6979 15.9917L20.5142 16.977H22.824C24.9494 16.977 25.1469 16.9227 25.3037 16.2948C25.52 15.4281 28.1043 0.64664 28.1043 0.276179C28.1043 0.124296 27.0754 0 25.8181 0L23.5323 0L23.3446 0.98527ZM34.2264 0.445342C31.5399 1.32845 29.7445 3.88075 30.2077 6.15809C30.4641 7.41863 32.2414 9.01689 34.6255 10.1313C36.9129 11.2002 37.3264 12.3947 35.6809 13.1796C34.3733 13.8032 32.3978 13.7622 30.4233 13.0701L28.7909 12.4981L28.5842 13.9038C28.4708 14.6769 28.312 15.5312 28.2318 15.8019C28.0336 16.4719 30.2816 16.977 33.4602 16.977C37.4556 16.977 39.8239 15.8544 40.9997 13.403C42.3287 10.6321 41.2344 8.70099 37.1437 6.59888C34.8611 5.42596 34.4654 4.5856 35.8127 3.77131C36.6552 3.2623 39.0101 3.2717 40.81 3.79193C41.5753 4.01323 41.6752 3.84953 42.0608 1.74105C42.2491 0.711516 42.1867 0.572972 41.4109 0.301038C40.1704 -0.133997 35.7161 -0.0442614 34.2264 0.445342ZM49.9152 0.20342C49.5273 0.276785 48.9866 0.568122 48.7134 0.850667C48.3463 1.23022 43.1869 12.2534 41.3429 16.598C41.2229 16.8809 41.81 16.977 43.6553 16.977L46.1282 16.977L46.5933 15.6885L47.0581 14.4001L50.0628 14.3131L53.0671 14.2261L53.2716 15.071C53.7512 17.0555 53.643 16.977 55.8937 16.977H58L57.787 15.9917C57.67 15.4496 56.8232 11.6641 55.9052 7.579L54.2363 0.15158L52.4284 0.110653C51.4341 0.0882196 50.303 0.129752 49.9152 0.20342ZM51.724 8.10953L52.3433 10.9138H50.3786C48.6382 10.9138 48.4399 10.8531 48.6451 10.3832C48.7719 10.0916 49.3344 8.70433 49.8945 7.301C50.4546 5.89767 50.9559 4.87451 51.0088 5.0273C51.0614 5.18009 51.3832 6.56735 51.724 8.10953Z" fill="white"/>
</svg>
