<svg width="22" height="27" viewBox="0 0 22 27" fill="none" xmlns="http://www.w3.org/2000/svg">
<path d="M17.2308 7.30349L3.27267 21.1815C2.62087 21.8295 1.50737 21.681 1.11357 20.8575C0.382126 19.3644 0.00138121 17.7257 7.25586e-05 16.065C-0.0270859 8.61299 7.57729 2.241 10.1574 0.2835C10.6598 -0.0944999 11.3387 -0.0944999 11.8276 0.2835C13.009 1.1745 15.2224 3.024 17.3 5.454C17.7617 5.99399 17.7346 6.80399 17.2321 7.30349H17.2308ZM21.9998 16.0785C21.9998 22.0995 17.0705 27 11.0006 27C8.64948 27.0049 6.35925 26.257 4.469 24.867C3.80362 24.381 3.7493 23.409 4.33321 22.8285L18.0075 9.23399C18.6457 8.59949 19.7185 8.73449 20.153 9.51749C21.2665 11.556 22.0134 13.77 21.9998 16.0785Z" fill="white"/>
</svg>
