<svg width="20" height="27" viewBox="0 0 20 27" fill="none" xmlns="http://www.w3.org/2000/svg">
<path d="M19.6354 5.68457L14.5365 0.612305C14.3021 0.379395 13.9844 0.25 13.651 0.25H13.3333V6.875H20V6.55928C20 6.2332 19.8698 5.91748 19.6354 5.68457ZM11.6667 7.28906V0.25H1.25C0.557292 0.25 0 0.803809 0 1.49219V25.5078C0 26.1962 0.557292 26.75 1.25 26.75H18.75C19.4427 26.75 20 26.1962 20 25.5078V8.53125H12.9167C12.2292 8.53125 11.6667 7.97227 11.6667 7.28906ZM3.33333 3.97656C3.33333 3.74779 3.51979 3.5625 3.75 3.5625H7.91667C8.14687 3.5625 8.33333 3.74779 8.33333 3.97656V4.80469C8.33333 5.03346 8.14687 5.21875 7.91667 5.21875H3.75C3.51979 5.21875 3.33333 5.03346 3.33333 4.80469V3.97656ZM3.33333 8.11719V7.28906C3.33333 7.06029 3.51979 6.875 3.75 6.875H7.91667C8.14687 6.875 8.33333 7.06029 8.33333 7.28906V8.11719C8.33333 8.34596 8.14687 8.53125 7.91667 8.53125H3.75C3.51979 8.53125 3.33333 8.34596 3.33333 8.11719ZM10.8333 21.775V23.0234C10.8333 23.2522 10.6469 23.4375 10.4167 23.4375H9.58333C9.35312 23.4375 9.16667 23.2522 9.16667 23.0234V21.7662C8.57865 21.7362 8.00677 21.5323 7.53281 21.1788C7.32969 21.0271 7.31927 20.7249 7.50312 20.5504L8.1151 19.9702C8.25937 19.8336 8.47396 19.8274 8.64271 19.9325C8.84427 20.0577 9.07292 20.125 9.31042 20.125H10.7745C11.113 20.125 11.3891 19.8186 11.3891 19.4423C11.3891 19.1344 11.201 18.8631 10.9323 18.7834L8.58854 18.0847C7.62031 17.7959 6.94375 16.8725 6.94375 15.8389C6.94375 14.5698 7.93594 13.5388 9.16615 13.5062V12.2578C9.16615 12.029 9.3526 11.8438 9.58281 11.8438H10.4161C10.6464 11.8438 10.8328 12.029 10.8328 12.2578V13.515C11.4208 13.545 11.9927 13.7484 12.4667 14.1025C12.6698 14.2541 12.6802 14.5564 12.4964 14.7308L11.8844 15.311C11.7401 15.4476 11.5255 15.4539 11.3568 15.3488C11.1552 15.223 10.9266 15.1562 10.6891 15.1562H9.225C8.88646 15.1562 8.61042 15.4627 8.61042 15.8389C8.61042 16.1469 8.79844 16.4181 9.06719 16.4978L11.4109 17.1965C12.3792 17.4854 13.0557 18.4087 13.0557 19.4423C13.0557 20.7119 12.0635 21.7424 10.8333 21.775Z" fill="white"/>
</svg>
