<svg width="30" height="31" viewBox="0 0 30 31" fill="none" xmlns="http://www.w3.org/2000/svg">
<path d="M2.5 16.5387V14.3387C2.5 13.0387 3.5625 11.9637 4.875 11.9637C7.1375 11.9637 8.0625 10.3637 6.925 8.4012C6.275 7.2762 6.6625 5.8137 7.8 5.1637L9.9625 3.9262C10.95 3.3387 12.225 3.6887 12.8125 4.6762L12.95 4.9137C14.075 6.8762 15.925 6.8762 17.0625 4.9137L17.2 4.6762C17.7875 3.6887 19.0625 3.3387 20.05 3.9262L22.2125 5.1637C23.35 5.8137 23.7375 7.2762 23.0875 8.4012C21.95 10.3637 22.875 11.9637 25.1375 11.9637C26.4375 11.9637 27.5125 13.0262 27.5125 14.3387V16.5387C27.5125 17.8387 26.45 18.9137 25.1375 18.9137C22.875 18.9137 21.95 20.5137 23.0875 22.4762C23.7375 23.6137 23.35 25.0637 22.2125 25.7137L20.05 26.9512C19.0625 27.5387 17.7875 27.1887 17.2 26.2012L17.0625 25.9637C15.9375 24.0012 14.0875 24.0012 12.95 25.9637L12.8125 26.2012C12.225 27.1887 10.95 27.5387 9.9625 26.9512L7.8 25.7137C7.25512 25.4 6.85698 24.8829 6.69293 24.2759C6.52889 23.669 6.61235 23.0217 6.925 22.4762C8.0625 20.5137 7.1375 18.9137 4.875 18.9137C3.5625 18.9137 2.5 17.8387 2.5 16.5387Z" fill="#D9D9D9" stroke="#2F3462" stroke-width="3" stroke-miterlimit="10" stroke-linecap="round" stroke-linejoin="round"/>
<path d="M15 19.1887C15.9946 19.1887 16.9484 18.7936 17.6517 18.0904C18.3549 17.3871 18.75 16.4333 18.75 15.4387C18.75 14.4442 18.3549 13.4903 17.6517 12.7871C16.9484 12.0838 15.9946 11.6887 15 11.6887C14.0054 11.6887 13.0516 12.0838 12.3483 12.7871C11.6451 13.4903 11.25 14.4442 11.25 15.4387C11.25 16.4333 11.6451 17.3871 12.3483 18.0904C13.0516 18.7936 14.0054 19.1887 15 19.1887Z" stroke="#2F3462" stroke-width="3" stroke-miterlimit="10" stroke-linecap="round" stroke-linejoin="round"/>
</svg>
