<svg width="125" height="125" viewBox="0 0 125 125" fill="none" xmlns="http://www.w3.org/2000/svg">
<path d="M78.342 6.96574C80.4386 9.06238 82.1018 11.5515 83.2365 14.2909C84.3712 17.0303 84.9552 19.9664 84.9552 22.9315C84.9552 25.8966 84.3712 28.8326 83.2365 31.5721C82.1018 34.3115 80.4386 36.8005 78.342 38.8972L62.3762 54.8629L46.4105 38.8972C42.1761 34.6628 39.7973 28.9198 39.7973 22.9315C39.7973 16.9432 42.1761 11.2001 46.4105 6.96573C50.6449 2.73136 56.3879 0.352514 62.3762 0.352514C68.3645 0.352514 74.1076 2.73136 78.342 6.96574V6.96574ZM62.3762 39.8364L70.8287 31.3839C72.5004 29.7122 73.6389 27.5823 74.1001 25.2635C74.5613 22.9447 74.3246 20.5413 73.4199 18.357C72.5151 16.1728 70.983 14.3059 69.0173 12.9924C67.0515 11.679 64.7404 10.9779 62.3762 10.9779C60.012 10.9779 57.7009 11.679 55.7352 12.9924C53.7694 14.3059 52.2373 16.1728 51.3326 18.357C50.4278 20.5413 50.1911 22.9447 50.6524 25.2635C51.1136 27.5823 52.2521 29.7122 53.9238 31.3839L62.3762 39.8364ZM38.8972 46.4105L54.8629 62.3762L38.8972 78.3419C35.7395 81.4996 31.7163 83.6501 27.3364 84.5213C22.9565 85.3925 18.4167 84.9454 14.2909 83.2364C10.1651 81.5275 6.63879 78.6335 4.15779 74.9204C1.67678 71.2073 0.352546 66.8419 0.352546 62.3762C0.352546 57.9105 1.67678 53.5451 4.15778 49.832C6.63879 46.1189 10.1651 43.2249 14.2909 41.516C18.4167 39.807 22.9565 39.3599 27.3364 40.2311C31.7163 41.1023 35.7395 43.2527 38.8972 46.4105V46.4105ZM31.3839 53.9238C29.7122 52.252 27.5823 51.1136 25.2635 50.6523C22.9448 50.1911 20.5413 50.4278 18.3571 51.3325C16.1728 52.2373 14.3059 53.7694 12.9925 55.7352C11.679 57.7009 10.9779 60.012 10.9779 62.3762C10.9779 64.7404 11.679 67.0515 12.9925 69.0172C14.3059 70.983 16.1728 72.5151 18.3571 73.4199C20.5413 74.3246 22.9448 74.5613 25.2635 74.1001C27.5823 73.6388 29.7122 72.5004 31.3839 70.8286L39.8364 62.3762L31.3839 53.9238ZM117.787 46.4105C122.021 50.6449 124.4 56.3879 124.4 62.3762C124.4 68.3645 122.021 74.1076 117.787 78.3419C113.552 82.5763 107.809 84.9552 101.821 84.9552C95.8327 84.9552 90.0896 82.5763 85.8552 78.3419L69.8895 62.3762L85.8552 46.4105C90.0896 42.1761 95.8327 39.7973 101.821 39.7973C107.809 39.7973 113.552 42.1761 117.787 46.4105V46.4105ZM93.3685 70.8286C95.0403 72.5004 97.1702 73.6388 99.4889 74.1001C101.808 74.5613 104.211 74.3246 106.395 73.4199C108.58 72.5151 110.447 70.983 111.76 69.0172C113.073 67.0515 113.775 64.7404 113.775 62.3762C113.775 60.012 113.073 57.7009 111.76 55.7352C110.447 53.7694 108.58 52.2373 106.395 51.3325C104.211 50.4278 101.808 50.1911 99.4889 50.6523C97.1702 51.1136 95.0403 52.252 93.3685 53.9238L84.9161 62.3762L93.3685 70.8286ZM62.3762 69.8895L78.342 85.8552C81.4997 89.0129 83.6501 93.0361 84.5213 97.416C85.3925 101.796 84.9454 106.336 83.2365 110.462C81.5275 114.587 78.6335 118.114 74.9204 120.595C71.2073 123.076 66.8419 124.4 62.3762 124.4C57.9105 124.4 53.5451 123.076 49.832 120.595C46.119 118.114 43.2249 114.587 41.516 110.462C39.8071 106.336 39.3599 101.796 40.2311 97.416C41.1023 93.0361 43.2528 89.0129 46.4105 85.8552L62.3762 69.8895ZM62.3762 84.9161L53.9238 93.3685C52.2521 95.0402 51.1136 97.1701 50.6524 99.4889C50.1911 101.808 50.4278 104.211 51.3326 106.395C52.2373 108.58 53.7694 110.446 55.7352 111.76C57.7009 113.073 60.012 113.774 62.3762 113.774C64.7404 113.774 67.0515 113.073 69.0173 111.76C70.983 110.446 72.5152 108.58 73.4199 106.395C74.3246 104.211 74.5613 101.808 74.1001 99.4889C73.6389 97.1701 72.5004 95.0402 70.8287 93.3685L62.3762 84.9161Z" fill="#2F3462"/>
</svg>
