<svg width="126" height="125" viewBox="0 0 126 125" fill="none" xmlns="http://www.w3.org/2000/svg">
<path d="M78.9657 6.96574C81.0624 9.06238 82.7255 11.5515 83.8602 14.2909C84.9949 17.0303 85.579 19.9664 85.579 22.9315C85.579 25.8966 84.9949 28.8326 83.8602 31.5721C82.7255 34.3115 81.0624 36.8005 78.9657 38.8972L63 54.8629L47.0343 38.8972C42.7999 34.6628 40.4211 28.9198 40.4211 22.9315C40.4211 16.9432 42.7999 11.2001 47.0343 6.96573C51.2687 2.73136 57.0117 0.352514 63 0.352514C68.9883 0.352514 74.7314 2.73136 78.9657 6.96574ZM63 39.8363L71.4525 31.3839C73.1242 29.7122 74.2627 27.5823 74.7239 25.2635C75.1851 22.9447 74.9484 20.5413 74.0437 18.357C73.1389 16.1728 71.6068 14.3059 69.6411 12.9924C67.6753 11.679 65.3642 10.9779 63 10.9779C60.6358 10.9779 58.3247 11.679 56.359 12.9924C54.3932 14.3059 52.8611 16.1728 51.9564 18.357C51.0516 20.5413 50.8149 22.9447 51.2761 25.2635C51.7374 27.5823 52.8758 29.7122 54.5476 31.3839L63 39.8363ZM39.521 46.4105L55.4867 62.3762L39.521 78.3419C36.3633 81.4997 32.3401 83.6501 27.9602 84.5213C23.5803 85.3925 19.0404 84.9454 14.9147 83.2364C10.7889 81.5275 7.26257 78.6335 4.78157 74.9204C2.30056 71.2073 0.976324 66.8419 0.976324 62.3762C0.976323 57.9105 2.30056 53.5451 4.78156 49.832C7.26257 46.1189 10.7889 43.2249 14.9147 41.516C19.0404 39.807 23.5803 39.3599 27.9602 40.2311C32.3401 41.1023 36.3633 43.2528 39.521 46.4105ZM32.0077 53.9238C30.336 52.252 28.2061 51.1136 25.8873 50.6523C23.5685 50.1911 21.1651 50.4278 18.9808 51.3325C16.7966 52.2373 14.9297 53.7694 13.6162 55.7352C12.3028 57.7009 11.6017 60.012 11.6017 62.3762C11.6017 64.7404 12.3028 67.0515 13.6162 69.0172C14.9297 70.983 16.7966 72.5151 18.9808 73.4199C21.1651 74.3246 23.5685 74.5613 25.8873 74.1001C28.2061 73.6388 30.336 72.5004 32.0077 70.8286L40.4602 62.3762L32.0077 53.9238ZM118.41 46.4105C122.645 50.6448 125.024 56.3879 125.024 62.3762C125.024 68.3645 122.645 74.1076 118.41 78.3419C114.176 82.5763 108.433 84.9552 102.445 84.9552C96.4564 84.9552 90.7134 82.5763 86.479 78.3419L70.5133 62.3762L86.479 46.4105C90.7134 42.1761 96.4564 39.7973 102.445 39.7973C108.433 39.7973 114.176 42.1761 118.41 46.4105ZM93.9923 70.8286C95.664 72.5004 97.794 73.6388 100.113 74.1001C102.431 74.5613 104.835 74.3246 107.019 73.4199C109.203 72.5151 111.07 70.983 112.384 69.0172C113.697 67.0515 114.398 64.7404 114.398 62.3762C114.398 60.012 113.697 57.7009 112.384 55.7352C111.07 53.7694 109.203 52.2373 107.019 51.3326C104.835 50.4278 102.431 50.1911 100.113 50.6523C97.794 51.1136 95.664 52.252 93.9923 53.9238L85.5399 62.3762L93.9923 70.8286ZM63 69.8895L78.9657 85.8552C82.1235 89.0129 84.2739 93.0361 85.1451 97.416C86.0163 101.796 85.5692 106.336 83.8602 110.462C82.1513 114.587 79.2573 118.114 75.5442 120.595C71.8311 123.076 67.4657 124.4 63 124.4C58.5343 124.4 54.1689 123.076 50.4558 120.595C46.7427 118.114 43.8487 114.587 42.1398 110.462C40.4308 106.336 39.9837 101.796 40.8549 97.416C41.7261 93.0361 43.8766 89.0129 47.0343 85.8552L63 69.8895ZM63 84.916L54.5476 93.3685C52.8758 95.0402 51.7374 97.1701 51.2761 99.4889C50.8149 101.808 51.0516 104.211 51.9564 106.395C52.8611 108.58 54.3932 110.446 56.359 111.76C58.3247 113.073 60.6358 113.774 63 113.774C65.3642 113.774 67.6753 113.073 69.6411 111.76C71.6068 110.446 73.1389 108.58 74.0437 106.395C74.9484 104.211 75.1851 101.808 74.7239 99.4889C74.2627 97.1702 73.1242 95.0402 71.4525 93.3685L63 84.916Z" fill="white"/>
</svg>
