<svg width="34" height="34" viewBox="0 0 34 34" fill="none" xmlns="http://www.w3.org/2000/svg">
<path d="M29.308 6.08932H28.628L22.882 0.344359C22.6575 0.123671 22.3553 0 22.0405 0C21.7257 0 21.4235 0.123671 21.199 0.344359C20.74 0.803276 20.74 1.55114 21.199 2.02706L25.262 6.08932H8.738L12.801 2.02706C13.26 1.56814 13.26 0.820273 12.801 0.344359C12.5765 0.123671 12.2743 0 11.9595 0C11.6447 0 11.3425 0.123671 11.118 0.344359L5.389 6.08932H4.709C3.179 6.08932 0 6.08932 0 10.4405C0 12.0892 0.34 13.177 1.054 13.8909C1.462 14.3158 1.955 14.5368 2.482 14.6558C2.975 14.7748 3.502 14.7918 4.012 14.7918H29.988C30.515 14.7918 31.008 14.7578 31.484 14.6558C32.912 14.3158 34 13.296 34 10.4405C34 6.08932 30.821 6.08932 29.308 6.08932ZM28.985 17.0031H4.879C3.825 17.0031 3.026 17.9379 3.196 18.9747L4.624 27.7111C5.1 30.6346 6.375 34 12.036 34H21.573C27.302 34 28.322 31.1275 28.934 27.9151L30.651 19.0257C30.6995 18.7798 30.6929 18.5262 30.6316 18.2832C30.5703 18.0402 30.4559 17.8138 30.2965 17.6204C30.1372 17.4269 29.9369 17.2712 29.7101 17.1645C29.4833 17.0577 29.2357 17.0026 28.985 17.0031ZM14.637 27.9661C14.6456 28.1265 14.6214 28.2871 14.566 28.4379C14.5105 28.5887 14.4248 28.7266 14.3143 28.8433C14.2037 28.9599 14.0705 29.0528 13.9229 29.1162C13.7753 29.1797 13.6162 29.2125 13.4555 29.2125C13.2948 29.2125 13.1357 29.1797 12.9881 29.1162C12.8405 29.0528 12.7073 28.9599 12.5967 28.8433C12.4862 28.7266 12.4005 28.5887 12.345 28.4379C12.2896 28.2871 12.2654 28.1265 12.274 27.9661V22.3571C12.274 21.7112 12.801 21.1673 13.464 21.1673C13.7767 21.1718 14.075 21.2991 14.2945 21.5217C14.514 21.7444 14.637 22.0445 14.637 22.3571V27.9661ZM21.913 27.9661C21.913 28.629 21.386 29.1559 20.723 29.1559C20.077 29.1559 19.533 28.629 19.533 27.9661V22.3571C19.533 21.7112 20.077 21.1673 20.723 21.1673C21.386 21.1673 21.913 21.7112 21.913 22.3571V27.9661Z" fill="white"/>
</svg>
