<svg width="23" height="23" viewBox="0 0 23 23" fill="none" xmlns="http://www.w3.org/2000/svg">
<path d="M20.2935 0.5625H3.10596C1.81201 0.5625 0.762207 1.6123 0.762207 2.90625V20.0938C0.762207 21.3877 1.81201 22.4375 3.10596 22.4375H20.2935C21.5874 22.4375 22.6372 21.3877 22.6372 20.0938V2.90625C22.6372 1.6123 21.5874 0.5625 20.2935 0.5625ZM17.9058 8.31641C17.9155 8.45312 17.9155 8.59473 17.9155 8.73145C17.9155 12.9648 14.6929 17.8428 8.8042 17.8428C6.98779 17.8428 5.30322 17.3154 3.88721 16.4072C4.146 16.4365 4.39502 16.4463 4.65869 16.4463C6.15771 16.4463 7.53467 15.9385 8.6333 15.0791C7.22705 15.0498 6.04541 14.127 5.64014 12.8574C6.1333 12.9307 6.57764 12.9307 7.08545 12.7988C5.62061 12.501 4.52197 11.2119 4.52197 9.6543V9.61523C4.94678 9.85449 5.44482 10.001 5.96729 10.0205C5.52804 9.72834 5.16796 9.33197 4.91918 8.86677C4.67039 8.40158 4.54064 7.88203 4.5415 7.35449C4.5415 6.75879 4.69775 6.21191 4.97607 5.73828C6.55322 7.68164 8.92139 8.95117 11.5776 9.08789C11.1235 6.91504 12.7495 5.15234 14.7026 5.15234C15.6255 5.15234 16.4556 5.53809 17.0415 6.16309C17.7642 6.02637 18.4575 5.75781 19.0728 5.3916C18.8335 6.13379 18.3306 6.75879 17.6665 7.1543C18.311 7.08594 18.936 6.90527 19.5122 6.65625C19.0776 7.2959 18.5308 7.8623 17.9058 8.31641Z" fill="white"/>
</svg>
